PathFileType	4	(X/Y/Z)	C:/Users/beibeiliu/ov580/test_trc/User2\sequence.13_training_dense_left.trc
DataRate	CameraRate	NumFrames	NumMarkers	Units	OrigDataRate	OrigDataStartFrame	OrigNumFrames
120	120	21	19	mm	120	1	83
Frame#	Time	ThumbCMC			ThumbMCP			ThumbIP			ThumbTip			IndexMCP			IndexPIP			IndexTip			MiddleMCP			MiddlePIP			MiddleTip			RingMCP			RingPIP			RingTip			PinkyMCP			PinkyPIP			PinkyTip			BackHand1			BackHand2			BackHand3	
		X0	Y0	Z0	X1	Y1	Z1	X2	Y2	Z2	X3	Y3	Z3	X4	Y4	Z4	X5	Y5	Z5	X6	Y6	Z6	X7	Y7	Z7	X8	Y8	Z8	X9	Y9	Z9	X10	Y10	Z10	X11	Y11	Z11	X12	Y12	Z12	X13	Y13	Z13	X14	Y14	Z14	X15	Y15	Z15	X16	Y16	Z16	X17	Y17	Z17	X18	Y18	Z18	
0	0	-124.521	-43.6388	-33.059	-103.363	-45.2724	-52.2788	-75.0203	-41.2218	-72.2649	-54.3854	-41.5827	-88.3333	-133.125	-11.0203	-109.821	-120.843	-4.41321	-132.646	-109.847	7.79708	-160.825	-158.862	-4.97237	-118.4	-156.02	6.09324	-147.418	-154.604	16.8773	-177.157	-185.787	-12.9388	-118.484	-189.2	-6.01148	-139.943	-191.691	2.49978	-167.817	-212.958	-31.2262	-105.209	-219.795	-26.9478	-124.901	-225.862	-13.1167	-145.719	-188.926	-21.0544	-64.7193	-192.203	-24.803	-27.1097	-156.214	-18.3701	-44.8345	
1	0.00833333	-126.864	-44.9673	-36.6222	-103.34	-45.4884	-54.0288	-80.6799	-44.1466	-76.1915	-56.5867	-44.9116	-91.1026	-134.289	-11.9534	-112.549	-122.215	-3.65104	-137.791	-112.256	5.532	-163.973	-159.112	-5.81845	-121.984	-156.761	2.8924	-146.608	-156.098	14.2963	-178.969	-191.631	-15.5683	-117.801	-189.65	-8.65919	-141.984	-192.845	2.27264	-173.687	-211.031	-34.6086	-102.898	-223.137	-25.9935	-129.631	-229.652	-15.2953	-144.3	-192.599	-24.7341	-62.609	-192.278	-24.4034	-30.6075	-156.432	-20.1671	-47.8929	
2	0.0166667	-128.649	-49.127	-35.2698	-106.869	-50.4964	-52.4866	-77.9516	-47.4274	-78.4731	-62.1735	-51.198	-90.5144	-130.256	-15.1902	-114.642	-124.686	-8.70589	-136.697	-111.367	-0.444525	-159.917	-164.064	-10.6934	-119.938	-159.12	-1.51492	-148.802	-155.739	8.91294	-177.595	-188.407	-19.6128	-116.03	-192.193	-11.3007	-146.601	-195.641	-3.11457	-173.423	-214.602	-36.5867	-103.451	-224.388	-31.0221	-127.806	-229.936	-20.2572	-146.081	-194.93	-27.0336	-63.1348	-192.946	-28.7029	-31.2499	-159.679	-24.2044	-45.7492	
3	0.025	-124.688	-47.9607	-39.2693	-106.433	-51.1295	-55.8407	-79.8904	-50.1508	-77.6876	-61.5189	-53.842	-89.4349	-133.562	-17.1654	-115.247	-120.3	-9.0607	-138.381	-117.519	-2.83652	-161.199	-162.437	-13.3931	-118.383	-159.824	-2.66217	-150.832	-159.194	6.74975	-179.013	-188.601	-20.4742	-118.003	-193.712	-13.6711	-144.876	-193.91	-6.87628	-168.656	-209.905	-39.5264	-102.435	-219.856	-31.5584	-127.022	-229.835	-20.309	-143.563	-192.976	-29.1223	-65.8287	-196.413	-29.6051	-32.204	-157.929	-24.3124	-48.6218	
4	0.0333333	-125.498	-47.8368	-36.5104	-101.079	-48.3344	-57.2053	-73.8881	-48.1756	-75.4072	-54.5143	-50.8455	-89.4745	-128.584	-15.9301	-111.435	-120.18	-8.86056	-134.494	-110.233	-0.0619328	-158.838	-156.194	-8.18768	-122.44	-153.497	-0.0113637	-152.443	-153.619	8.80384	-177.045	-189.779	-20.6107	-117.39	-189.143	-11.1439	-145.98	-192.729	-4.82692	-173.237	-211.912	-38.0458	-103.861	-214.679	-31.3322	-126.341	-226.305	-18.7493	-143.694	-190.416	-26.4162	-64.9684	-187.317	-26.8526	-33.2468	-155.249	-23.4173	-48.9251	
5	0.0416667	-118.322	-44.1306	-39.6583	-95.9515	-45.821	-55.7067	-68.856	-44.1008	-78.3898	-47.1245	-47.4601	-88.9271	-121.762	-14.2002	-109.572	-115.165	-5.14862	-138.567	-104.339	2.09794	-158.802	-153.822	-7.55876	-122.094	-148.111	1.81324	-149.309	-149.799	10.7642	-178.544	-183.751	-18.7877	-117.279	-185.589	-10.2162	-145.673	-187.358	-4.20914	-170.162	-202.974	-35.4094	-103.333	-207.985	-30.6649	-124.625	-220.013	-19.4244	-144.463	-180.906	-25.4014	-61.3656	-183.715	-26.4813	-31.4006	-145.949	-21.3009	-46.9914	
6	0.05	-107.674	-41.5394	-37.5912	-84.67	-43.1871	-54.1347	-62.0513	-45.041	-73.6412	-41.2554	-45.9107	-87.3552	-115.61	-10.3472	-114.179	-104.27	-4.96744	-133.089	-97.7158	4.00096	-159.165	-145.965	-5.48284	-121.85	-139.52	2.69608	-146.514	-138.783	14.1214	-178.908	-170.342	-17.2579	-114.615	-175.51	-9.73775	-142.528	-175.241	-0.0446301	-172.862	-196.832	-34.3917	-102.891	-203.855	-26.9072	-128.315	-212.117	-16.5579	-145.002	-171.228	-25.6371	-60.803	-176.975	-25.0357	-29.2211	-141.033	-18.436	-44.7989	
7	0.0583333	-98.6367	-42.1908	-31.1837	-76.1113	-44.4774	-49.5075	-47.5794	-41.618	-72.6495	-28.0642	-45.17	-83.2117	-104.602	-10.3454	-110.876	-91.9904	-3.40017	-135.65	-88.2357	4.16958	-157.893	-133.973	-5.89385	-120.19	-130.418	2.11973	-146.628	-125.251	13.4571	-180.109	-160.024	-16.5015	-114.726	-167.717	-10.5691	-142.02	-167.492	-3.31858	-168.722	-186.937	-32.0349	-103.47	-191.808	-28.2952	-124.275	-202.277	-15.6145	-146.741	-166.459	-24.8067	-59.6489	-166.614	-23.8211	-29.7528	-127.858	-16.8286	-43.9874	
8	0.0666667	-90.2025	-43.2027	-33.4634	-68.1676	-44.7697	-51.8937	-43.7193	-44.0604	-72.2049	-20.621	-44.7237	-87.2682	-96.6311	-12.8279	-108.313	-84.7985	-4.23391	-135.822	-73.6675	3.81982	-159.92	-125.462	-8.51789	-116.673	-124.461	1.1761	-150.018	-120.442	9.88117	-177.792	-153.765	-17.389	-115.776	-158.82	-12.2091	-140.965	-156.356	-4.36871	-170.864	-177.785	-35.1214	-98.555	-182.993	-29.7028	-122.389	-193.879	-17.6826	-143.675	-155.038	-25.3433	-60.5538	-158.628	-25.3058	-26.2441	-120.937	-20.1936	-42.9464	
9	0.075	-85.949	-42.8309	-32.7299	-58.384	-43.2362	-50.7533	-33.847	-42.2943	-69.6975	-17.6049	-46.1969	-86.1436	-88.8717	-12.2639	-109.932	-82.4063	-5.34767	-133.024	-72.375	4.22758	-158.812	-117.53	-6.83067	-119.107	-114.639	1.4004	-147.829	-114.142	9.15427	-177.353	-144.281	-15.8066	-117.161	-153.384	-11.927	-139.744	-151.821	-5.93362	-170.116	-166.618	-34.4228	-98.9684	-178.535	-28.1472	-124.846	-185.491	-18.2695	-144.476	-151.264	-24.1976	-60.3681	-151.495	-22.722	-30.5157	-113.436	-18.8255	-42.598	
10	0.0833333	-78.4962	-40.8611	-35.8485	-55.7767	-43.1891	-52.6032	-29.9287	-42.4529	-74.2387	-8.96022	-44.3372	-87.5138	-85.7145	-12.6669	-113.538	-74.2458	-6.06557	-135.223	-67.0926	3.74761	-163.205	-113.65	-6.97735	-122.795	-110.776	-0.733645	-149.409	-113.248	7.28969	-180.029	-145.387	-18.7175	-117.292	-147.763	-13.0547	-142.175	-146.502	-6.13996	-173.228	-161.749	-34.4992	-100.803	-172.755	-27.7773	-125.604	-180.445	-19.1587	-145.753	-145.808	-24.0015	-61.661	-145.386	-23.1057	-33.2284	-110.22	-17.5104	-45.5637	
11	0.0916667	-76.9806	-44.5207	-36.0934	-48.7062	-44.3742	-52.3721	-24.0592	-43.2778	-74.6687	-8.08404	-46.7112	-90.3222	-79.5441	-14.7031	-115.797	-69.1855	-7.62113	-139.824	-63.8638	-0.145427	-162.305	-109.49	-10.5724	-122.419	-108.608	-2.13438	-153.824	-107.148	5.91671	-185.814	-139.23	-21.6645	-117.774	-139.989	-16.353	-144.276	-144.125	-10.9481	-172.266	-157.232	-33.7829	-107.147	-165.864	-31.4295	-126.339	-178.939	-20.7639	-148.069	-140.689	-23.6964	-65.4243	-142.796	-23.5401	-33.2611	-102.076	-20.6479	-49.6649	
12	0.1	-71.2685	-44.7721	-42.5496	-48.1667	-48.2242	-58.5141	-18.3225	-46.4138	-77.8388	0.330434	-48.0507	-91.0012	-72.9734	-17.5855	-119.315	-62.3725	-11.3345	-141.201	-57.71	-4.09423	-163.942	-101.544	-13.5385	-126.973	-101.874	-6.12859	-158.275	-102.46	0.477036	-185.406	-134.892	-24.0272	-121.844	-133.03	-18.6804	-150.27	-136.891	-15.0201	-177.364	-154.384	-39.9524	-105.5	-161.946	-35.8508	-128.114	-171.843	-23.333	-151.455	-130.409	-28.1477	-69.7067	-134.274	-26.7662	-33.8067	-98.5339	-23.8759	-50.2558	
13	0.108333	-70.1687	-50.298	-40.0826	-44.4602	-50.2172	-59.3971	-19.0465	-48.5936	-81.2719	0.100405	-52.0775	-94.1339	-78.291	-21.6966	-118.437	-66.6676	-14.553	-140.65	-57.8963	-5.44782	-169.085	-103.694	-15.2527	-129.695	-100.784	-9.3235	-159.182	-100.653	-3.90815	-186.885	-132.436	-25.8655	-125.194	-135.06	-22.9297	-148.378	-135.691	-19.034	-177.795	-152.714	-39.9597	-111.36	-164.597	-37.1518	-134.759	-170.582	-27.5655	-153.985	-131.781	-31.3921	-70.9673	-134.443	-27.7895	-37.4453	-98.9364	-24.9066	-49.3796	
14	0.116667	-73.7931	-55.3086	-39.6211	-51.3517	-58.0771	-55.8298	-24.5386	-57.2622	-78.2347	-7.8286	-60.1129	-94.2031	-82.7676	-27.21	-120.622	-73.1974	-21.2502	-142.587	-64.0964	-13.5744	-168.585	-108.098	-23.731	-126.182	-105.51	-17.1455	-157.377	-107.372	-10.6345	-191.902	-137.001	-33.1397	-124.029	-140.376	-29.4083	-150.392	-139.644	-26.9967	-177.014	-161.992	-47.4304	-110.162	-168.756	-45.043	-129.943	-178.258	-33.4556	-154.502	-141.169	-37.1269	-67.3814	-138.869	-36.9459	-37.5261	-105.314	-31.9489	-51.542	
15	0.125	-80.8201	-58.7467	-37.8232	-58.0774	-61.7149	-57.1061	-30.9546	-60.9109	-81.3709	-15.3151	-67.7206	-94.1353	-88.562	-29.2326	-116.001	-77.1782	-23.2171	-140.073	-73.2228	-15.5704	-170.299	-119.275	-26.0309	-123.174	-112.797	-18.8547	-157.55	-114.499	-14.1667	-185.701	-145.966	-36.4922	-119.917	-146.549	-33.5238	-146.56	-149.347	-30.5453	-175.678	-169.228	-51.5188	-106.552	-173.777	-48.0976	-129.843	-181.415	-38.2843	-152.837	-146.003	-40.9966	-67.3353	-147.195	-40.3758	-33.7291	-110.963	-32.5097	-50.5081	
16	0.133333	-89.3648	-55.3084	-32.2868	-64.6691	-59.0189	-56.5108	-43.4812	-61.8987	-78.7953	-29.1578	-65.2688	-102.579	-100.019	-20.6738	-107.989	-89.6892	-15.2935	-139.059	-82.1837	-15.2753	-165.357	-131.128	-19.9874	-116.109	-127.744	-11.4456	-150.192	-125.969	-7.87796	-180.241	-151.895	-30.5406	-116.285	-157.551	-26.1254	-144.072	-156.874	-22.7947	-175.056	-175.423	-48.421	-104.735	-181.026	-44.8077	-126.56	-187.181	-36.9628	-149.271	-157.3	-39.517	-57.8057	-157.524	-39.1398	-29.8667	-124.219	-29.4445	-44.4437	
17	0.141667	-95.7877	-42.2104	-28.6407	-74.4169	-47.8953	-50.1547	-54.2641	-48.3467	-78.7583	-44.2554	-50.3636	-105.624	-106.554	-0.0383196	-96.9	-96.5374	1.55448	-131.115	-86.4735	-13.0245	-154.88	-138.636	1.77639	-109.435	-132.654	10.4297	-139.15	-128.761	10.5784	-176.209	-161.649	-15.1123	-109.834	-162.123	-8.70784	-135.356	-152.16	-4.30359	-166.564	-177.094	-38.0619	-99.6647	-184.402	-31.6397	-127.273	-186.748	-24.7265	-146.567	-164.71	-30.7895	-55.1042	-170.119	-38.1095	-26.1928	-137.593	-21.3662	-34.5667	
18	0.15	-98.4917	-33.7401	-27.5918	-78.3955	-38.3699	-50.021	-57.1155	-35.1012	-83.7577	-58.2572	-37.4325	-108.849	-109.694	10.4625	-92.4608	-93.7534	8.71882	-123.492	-86.3186	-17.6686	-143.205	-141.325	13.9924	-99.9169	-135.355	25.5415	-136.919	-127.363	25.1162	-164.473	-163.086	-3.42628	-102.947	-163.039	7.35961	-133.172	-151.147	13.5356	-163.519	-177.789	-29.0409	-98.8383	-181.116	-16.5361	-125.98	-182.355	-7.7861	-145.303	-166.768	-27.1855	-52.0519	-174.542	-37.8041	-23.007	-142.501	-18.7573	-30.5553	
19	0.158333	-98.7444	-32.2737	-30.1162	-71.9876	-33.7642	-53.4845	-56.4122	-31.9449	-84.7199	-56.4178	-32.6808	-114.164	-106.85	15.8539	-99.3579	-91.4387	8.12303	-123.007	-83.8207	-24.3048	-136.531	-139.469	22.9191	-102.682	-128.577	34.8271	-132.092	-121.25	33.8986	-164.033	-162.793	5.78677	-106.255	-159.248	17.3431	-128.857	-148.027	25.9433	-160.568	-176.613	-24.047	-99.3339	-181.888	-10.728	-124.236	-183.031	0.259071	-148.05	-166.481	-20.9911	-56.2349	-169.791	-38.5693	-25.7086	-136.963	-13.0748	-29.0465	
20	0.166667	-96.7518	-29.2621	-33.8336	-67.9007	-30.6798	-60.9649	-50.9809	-31.9212	-92.2616	-54.2071	-37.1032	-121.482	-105.225	10.7289	-105.473	-88.3623	-5.09629	-133.645	-79.8153	-38.3317	-137.847	-138.733	16.5217	-111.647	-126.842	29.5674	-141.948	-117.244	27.7857	-176.222	-160.1	0.186444	-111.658	-160.052	14.3978	-141.859	-148.619	20.7263	-167.421	-172.721	-27.2359	-105.944	-179.736	-16.5302	-131.304	-180.88	-4.75829	-154.041	-161.958	-23.923	-63.3639	-166.076	-34.1258	-34.7716	-137.913	-9.68549	-40.8552	
